<?xml version="1.0" encoding="UTF-8"?>
<svg id="Layer_2" xmlns="http://www.w3.org/2000/svg" width="649.77" height="498.83"
    transform="scale(1,-1)"
    viewBox="0 0 649.77 498.83">
    <defs>
        <style>
            .cls-1{stroke-width:3.16px;}.cls-1,.cls-2{fill:none;stroke:rgba(22,33,45,.7);}.cls-2{stroke-width:3.11px;}.cls-3{fill:#ccc;}</style>
    </defs>
    <rect class="cls-3" y="421.54" width="243.6" height="77.29" rx="4.17" ry="4.17" />
    <rect class="cls-3" y="316.11" width="243.6" height="104.39" rx="4.23" ry="4.23" />
    <path class="cls-1" d="m98.54,402.61v9.99h10.61" />
    <path class="cls-2" d="m98.54,334.52v-10.36h10.45" />
    <path class="cls-1" d="m228.31,402.61v9.99h-10.61" />
    <path class="cls-1" d="m228.31,334.52v-10.52h-10.61" />
    <rect class="cls-3" x="244.64" y="316.11" width="160.4" height="104.39" rx="4.23" ry="4.23" />
    <path class="cls-1" d="m259.96,402.61v9.99h10.61" />
    <path class="cls-2" d="m259.96,334.52v-10.36h10.45" />
    <path class="cls-1" d="m389.73,402.61v9.99h-10.61" />
    <path class="cls-1" d="m389.73,334.52v-10.52h-10.61" />
    <rect class="cls-3" x="406.08" y="316.11" width="243.68" height="104.39" rx="4.23" ry="4.23" />
    <path class="cls-1" d="m423.19,400.12v9.99h10.61" />
    <path class="cls-2" d="m423.19,337.01v-10.36h10.45" />
    <path class="cls-1" d="m548.54,400.12v9.99h-10.61" />
    <path class="cls-1" d="m548.54,337.01v-10.52h-10.61" />
    <rect class="cls-3" y="210.86" width="243.6" height="104.21" rx="4.23" ry="4.23" />
    <path class="cls-1" d="m98.54,297.27v9.99h10.61" />
    <path class="cls-2" d="m98.54,229.18v-10.36h10.45" />
    <path class="cls-1" d="m228.31,297.27v9.99h-10.61" />
    <path class="cls-1" d="m228.31,229.18v-10.52h-10.61" />
    <rect class="cls-3" x="244.64" y="210.86" width="160.4" height="104.21" rx="4.23" ry="4.23" />
    <path class="cls-1" d="m259.96,297.27v9.99h10.61" />
    <path class="cls-2" d="m259.96,229.18v-10.36h10.45" />
    <path class="cls-1" d="m389.73,297.27v9.99h-10.61" />
    <path class="cls-1" d="m389.73,229.18v-10.52h-10.61" />
    <rect class="cls-3" x="406.08" y="210.86" width="243.68" height="104.21" rx="4.23" ry="4.23" />
    <path class="cls-1" d="m421.37,297.27v9.99h10.61" />
    <path class="cls-2" d="m421.37,229.18v-10.36h10.45" />
    <path class="cls-1" d="m551.14,297.27v9.99h-10.61" />
    <path class="cls-1" d="m551.14,229.18v-10.52h-10.61" />
    <rect class="cls-3" y="105.43" width="243.6" height="104.39" rx="4.23" ry="4.23" />
    <path class="cls-1" d="m98.54,191.93v9.99h10.61" />
    <path class="cls-2" d="m98.54,123.84v-10.36h10.45" />
    <path class="cls-1" d="m228.31,191.93v9.99h-10.61" />
    <path class="cls-1" d="m228.31,123.84v-10.52h-10.61" />
    <rect class="cls-3" x="244.64" y="105.43" width="160.4" height="104.39" rx="4.23" ry="4.23" />
    <path class="cls-1" d="m259.96,191.93v9.99h10.61" />
    <path class="cls-2" d="m259.96,123.84v-10.36h10.45" />
    <path class="cls-1" d="m389.73,191.93v9.99h-10.61" />
    <path class="cls-1" d="m389.73,123.84v-10.52h-10.61" />
    <rect class="cls-3" x="406.08" y="105.43" width="243.68" height="104.39" rx="4.23" ry="4.23" />
    <path class="cls-1" d="m421.37,191.93v9.99h10.61" />
    <path class="cls-2" d="m421.37,123.84v-10.36h10.45" />
    <path class="cls-1" d="m551.14,191.93v9.99h-10.61" />
    <path class="cls-1" d="m551.14,123.84v-10.52h-10.61" />
    <rect class="cls-3" width="243.6" height="104.39" rx="4.23" ry="4.23" />
    <path class="cls-1" d="m98.54,86.5v9.99h10.61" />
    <path class="cls-2" d="m98.54,18.41v-10.36h10.45" />
    <path class="cls-1" d="m228.31,86.5v9.99h-10.61" />
    <path class="cls-1" d="m228.31,18.41V7.89h-10.61" />
    <rect class="cls-3" x="244.64" width="160.4" height="104.39" rx="4.23" ry="4.23" />
    <path class="cls-1" d="m259.96,86.5v9.99h10.61" />
    <path class="cls-2" d="m259.96,18.41v-10.36h10.45" />
    <path class="cls-1" d="m389.73,86.5v9.99h-10.61" />
    <path class="cls-1" d="m389.73,18.41V7.89h-10.61" />
    <rect class="cls-3" x="406.08" width="243.68" height="104.39" rx="4.23" ry="4.23" />
    <path class="cls-1" d="m421.37,86.5v9.99h10.61" />
    <path class="cls-2" d="m421.37,18.41v-10.36h10.45" />
    <path class="cls-1" d="m551.14,86.5v9.99h-10.61" />
    <path class="cls-1" d="m551.14,18.41V7.89h-10.61" />
    <rect xmlns="http://www.w3.org/2000/svg" x="0" y="0" width="128" height="86" fill="red" />
</svg>