<?xml version="1.0" encoding="UTF-8"?>
<svg viewBox="-204.31 -76.59 854.995 581.74" version="1.1" xmlns="http://www.w3.org/2000/svg"
    class="Svg-sc-1lpozsw-0 gsmbqZ">
    <g>
        <g id="deckLayers">
            <style type="text/css">
                .st0{fill:#CCCCCC;}
                .st1{fill:none;stroke:#16212D;stroke-width:3.1556;stroke-opacity:0.7;}
                .st2{fill:none;stroke:#16212D;stroke-width:3.1076;stroke-opacity:0.7;}
</style>
            <g>
                <g>
                    <g>
                        <path class="st0"
                            d="M-99.6,485.6v-69c0-2.3,1.9-4.2,4.2-4.2h235.2c2.3,0,4.2,1.9,4.2,4.2v69c0,2.3-1.9,4.2-4.2,4.2H-95.4
        C-97.7,489.8-99.6,487.9-99.6,485.6z"></path>
                        <path class="st0"
                            d="M-99.6,407.2v-95.9c0-2.3,1.9-4.2,4.2-4.2h235.2c2.3,0,4.2,1.9,4.2,4.2v95.9c0,2.3-1.9,4.2-4.2,4.2H-95.4
        C-97.7,411.4-99.6,409.5-99.6,407.2z"></path>
                        <path class="st1" d="M9.5,403.5H-1.1v-10"></path>
                        <path class="st2" d="M9.3,315.1H-1.1v10.4"></path>
                        <path class="st1" d="M118.1,403.5h10.6v-10"></path>
                        <path class="st1" d="M118.1,315h10.6v10.5"></path>
                        <path class="st0"
                            d="M145.1,407.2v-95.9c0-2.3,1.9-4.2,4.2-4.2h151.9c2.3,0,4.2,1.9,4.2,4.2v95.9c0,2.3-1.9,4.2-4.2,4.2H149.3
        C146.9,411.4,145.1,409.5,145.1,407.2z"></path>
                        <path class="st1" d="M170.9,403.5h-10.6v-10"></path>
                        <path class="st2" d="M170.7,315.1h-10.4v10.4"></path>
                        <path class="st1" d="M279.5,403.5h10.6v-10"></path>
                        <path class="st1" d="M279.5,315h10.6v10.5"></path>
                        <path class="st0"
                            d="M306.5,407.2v-95.9c0-2.3,1.9-4.2,4.2-4.2H546c2.3,0,4.2,1.9,4.2,4.2v95.9c0,2.3-1.9,4.2-4.2,4.2H310.7
        C308.4,411.4,306.5,409.5,306.5,407.2z"></path>
                        <path class="st1" d="M334.2,401.1h-10.6v-10"></path>
                        <path class="st2" d="M334,317.5h-10.4v10.4"></path>
                        <path class="st1" d="M438.4,401.1h10.6v-10"></path>
                        <path class="st1" d="M438.4,317.4h10.6v10.5"></path>
                        <path class="st0"
                            d="M-99.6,301.8v-95.7c0-2.3,1.9-4.2,4.2-4.2h235.2c2.3,0,4.2,1.9,4.2,4.2v95.7c0,2.3-1.9,4.2-4.2,4.2H-95.4
        C-97.7,306-99.6,304.1-99.6,301.8z"></path>
                        <path class="st1" d="M9.5,298.2H-1.1v-10"></path>
                        <path class="st2" d="M9.3,209.7H-1.1v10.4"></path>
                        <path class="st1" d="M118.1,298.2h10.6v-10"></path>
                        <path class="st1" d="M118.1,209.6h10.6v10.5"></path>
                        <path class="st0"
                            d="M145.1,301.8v-95.7c0-2.3,1.9-4.2,4.2-4.2h151.9c2.3,0,4.2,1.9,4.2,4.2v95.7c0,2.3-1.9,4.2-4.2,4.2H149.3
        C146.9,306,145.1,304.1,145.1,301.8z"></path>
                        <path class="st1" d="M170.9,298.2h-10.6v-10"></path>
                        <path class="st2" d="M170.7,209.7h-10.4v10.4"></path>
                        <path class="st1" d="M279.5,298.2h10.6v-10"></path>
                        <path class="st1" d="M279.5,209.6h10.6v10.5"></path>
                        <path class="st0"
                            d="M306.5,301.8v-95.7c0-2.3,1.9-4.2,4.2-4.2H546c2.3,0,4.2,1.9,4.2,4.2v95.7c0,2.3-1.9,4.2-4.2,4.2H310.7
        C308.4,306,306.5,304.1,306.5,301.8z"></path>
                        <path class="st1" d="M332.4,298.2h-10.6v-10"></path>
                        <path class="st2" d="M332.2,209.7h-10.4v10.4"></path>
                        <path class="st1" d="M440.9,298.2h10.6v-10"></path>
                        <path class="st1" d="M440.9,209.6h10.6v10.5"></path>
                        <path class="st0"
                            d="M-99.6,196.5v-95.9c0-2.3,1.9-4.2,4.2-4.2h235.2c2.3,0,4.2,1.9,4.2,4.2v95.9c0,2.3-1.9,4.2-4.2,4.2H-95.4
        C-97.7,200.7-99.6,198.9-99.6,196.5z"></path>
                        <path class="st1" d="M9.5,192.9H-1.1v-10"></path>
                        <path class="st2" d="M9.3,104.4H-1.1v10.4"></path>
                        <path class="st1" d="M118.1,192.9h10.6v-10"></path>
                        <path class="st1" d="M118.1,104.3h10.6v10.5"></path>
                        <path class="st0"
                            d="M145.1,196.5v-95.9c0-2.3,1.9-4.2,4.2-4.2h151.9c2.3,0,4.2,1.9,4.2,4.2v95.9c0,2.3-1.9,4.2-4.2,4.2H149.3
        C146.9,200.7,145.1,198.9,145.1,196.5z"></path>
                        <path class="st1" d="M170.9,192.9h-10.6v-10"></path>
                        <path class="st2" d="M170.7,104.4h-10.4v10.4"></path>
                        <path class="st1" d="M279.5,192.9h10.6v-10"></path>
                        <path class="st1" d="M279.5,104.3h10.6v10.5"></path>
                        <path class="st0"
                            d="M306.5,196.5v-95.9c0-2.3,1.9-4.2,4.2-4.2H546c2.3,0,4.2,1.9,4.2,4.2v95.9c0,2.3-1.9,4.2-4.2,4.2H310.7
        C308.4,200.7,306.5,198.9,306.5,196.5z"></path>
                        <path class="st1" d="M332.4,192.9h-10.6v-10"></path>
                        <path class="st2" d="M332.2,104.4h-10.4v10.4"></path>
                        <path class="st1" d="M440.9,192.9h10.6v-10"></path>
                        <path class="st1" d="M440.9,104.3h10.6v10.5"></path>
                        <path class="st0"
                            d="M-99.6,91.1V-4.8c0-2.3,1.9-4.2,4.2-4.2h235.2c2.3,0,4.2,1.9,4.2,4.2v95.9c0,2.3-1.9,4.2-4.2,4.2H-95.4
        C-97.7,95.3-99.6,93.4-99.6,91.1z"></path>
                        <path class="st1" d="M9.5,87.4H-1.1v-10"></path>
                        <path class="st2" d="M9.3-1.1H-1.1V9.3"></path>
                        <path class="st1" d="M118.1,87.4h10.6v-10"></path>
                        <path class="st1" d="M118.1-1.2h10.6V9.3"></path>
                        <path class="st0"
                            d="M145.1,91.1V-4.8c0-2.3,1.9-4.2,4.2-4.2h151.9c2.3,0,4.2,1.9,4.2,4.2v95.9c0,2.3-1.9,4.2-4.2,4.2H149.3
        C146.9,95.3,145.1,93.4,145.1,91.1z"></path>
                        <path class="st1" d="M170.9,87.4h-10.6v-10"></path>
                        <path class="st2" d="M170.7-1.1h-10.4V9.3"></path>
                        <path class="st1" d="M279.5,87.4h10.6v-10"></path>
                        <path class="st1" d="M279.5-1.2h10.6V9.3"></path>
                        <path class="st0"
                            d="M306.5,91.1V-4.8c0-2.3,1.9-4.2,4.2-4.2H546c2.3,0,4.2,1.9,4.2,4.2v95.9c0,2.3-1.9,4.2-4.2,4.2H310.7
        C308.4,95.3,306.5,93.4,306.5,91.1z"></path>
                        <path class="st1" d="M332.4,87.4h-10.6v-10"></path>
                        <path class="st2" d="M332.2-1.1h-10.4V9.3"></path>
                        <path class="st1" d="M440.9,87.4h10.6v-10"></path>
                        <path class="st1" d="M440.9-1.2h10.6V9.3"></path>
                    </g>
                </g>
            </g>
        </g>
    </g>
    <rect x="0" y="0" width="128" height="86" fill="#0075ff33"></rect>
    <rect x="164" y="0" width="128" height="86" fill="#0075ff33"></rect>
    <rect x="328" y="0" width="128" height="86" fill="#0075ff33"></rect>
    <rect x="0" y="107" width="128" height="86" fill="#0075ff33"></rect>
    <rect x="164" y="107" width="128" height="86" fill="#0075ff33"></rect>
    <rect x="328" y="107" width="128" height="86" fill="#0075ff33"></rect>
    <rect x="0" y="214" width="128" height="86" fill="#0075ff33"></rect>
    <rect x="164" y="214" width="128" height="86" fill="#0075ff33"></rect>
    <rect x="328" y="214" width="128" height="86" fill="#0075ff33"></rect>
    <rect x="0" y="321" width="128" height="86" fill="#0075ff33"></rect>
    <rect x="164" y="321" width="128" height="86" fill="#0075ff33"></rect>
    <rect x="328" y="321" width="128" height="86" fill="#0075ff33"></rect>
</svg>