<svg version="1.1" id="SIMPLIFIED" xmlns="http://www.w3.org/2000/svg" xmlns:xlink="http://www.w3.org/1999/xlink" x="0px" y="0px" viewBox="-200 -200 2821.4 2821.5" style="enable-background:new 0 0 2821.4 2821.5" xml:space="preserve">
    <g id="SLOT_BASES">
        <path style="fill:#FFFFFF;stroke:#000000;stroke-width:0.5;stroke-miterlimit:10;" d="M140.619 -9.9566H-97.392C-99.6007 -9.9566 -101.3536 -8.1686 -101.3536 -5.995C-101.3536 -5.995 -101.3536 -5.995 -101.3536 -5.995V91.3971C-101.3536 93.6057 -99.5657 95.3587 -97.392 95.3587H140.619C142.8276 95.3587 144.5806 93.5707 144.5806 91.3971V-5.9599C144.5806 -8.1686 142.8276 -9.9215 140.619 -9.9566C140.619 -9.9215 140.619 -9.9566 140.619 -9.9566Z"></path>
        <path style="fill:none;stroke:#000000;stroke-width:0.5;stroke-miterlimit:10;" d="M144.5806 36.2854C144.5806 37.3722 143.7041 38.2837 142.5822 38.2837H142.5822H139.6023C137.1482 38.2837 135.1148 40.282 135.1148 42.7712H135.1148H135.1148C135.1148 45.2252 137.1131 47.2586 139.6023 47.2586H139.6023H142.5822C143.669 47.2586 144.5806 48.1351 144.5806 49.257H144.5806"></path>
        <path style="fill:#FFFFFF;stroke:#000000;stroke-width:0.5;stroke-miterlimit:10;" d="M307.5668 -5.9599C307.5668 -8.1686 305.7788 -9.9215 303.6052 -9.9566H149.5588C147.3502 -9.9566 145.5973 -8.1686 145.5973 -5.9599V91.4321C145.5973 93.6408 147.3852 95.3937 149.5588 95.3937H303.6052C305.8138 95.3937 307.5668 93.6057 307.5668 91.4321V-5.9599Z"></path>
        <path style="fill:none;stroke:#000000;stroke-width:0.5;stroke-miterlimit:10;" d="M307.5668 -5.9599C307.5668 -8.1686 305.7788 -9.9215 303.6052 -9.9566H149.5588C147.3502 -9.9566 145.5973 -8.1686 145.5973 -5.9599V91.4321C145.5973 93.6408 147.3852 95.3937 149.5588 95.3937H303.6052C305.8138 95.3937 307.5668 93.6057 307.5668 91.4321V-5.9599Z"></path>
        <path style="fill:none;stroke:#000000;stroke-width:0.5;stroke-miterlimit:10;" d="M145.5973 49.1868C145.5973 48.1 146.4737 47.1885 147.5956 47.1885H147.5956H150.5755C153.0296 47.1885 155.063 45.1902 155.063 42.701H155.063H155.063C155.063 40.247 153.0647 38.2136 150.5755 38.2136H150.5755H147.5956C146.5088 38.2136 145.5973 37.3371 145.5973 36.2153C145.5973 36.2153 145.5973 36.2153 145.5973 36.2153"></path>
        <path style="fill:none;stroke:#000000;stroke-width:0.5;stroke-miterlimit:10;" d="M307.5668 36.2854C307.5668 37.3722 306.6903 38.2837 305.5684 38.2837H302.5885C300.1344 38.2837 298.101 40.282 298.101 42.7712H298.101H298.101C298.101 45.2252 300.0993 47.2586 302.5885 47.2586H302.5885H305.5684C306.6552 47.2586 307.5668 48.1351 307.5668 49.257"></path>
        <path style="fill:#FFFFFF;stroke:#000000;stroke-width:0.5;stroke-miterlimit:10;" d="M308.5834 91.4321C308.5834 93.6408 310.3714 95.3937 312.545 95.3937H550.5561C552.7647 95.3937 554.5177 93.6057 554.5177 91.4321V-5.9599C554.5177 -8.1686 552.7297 -9.9215 550.5561 -9.9215H312.545C310.3364 -9.9215 308.5834 -8.1335 308.5834 -5.9599V91.4321H308.5834Z"></path>
        <path style="fill:none;stroke:#000000;stroke-width:0.5;stroke-miterlimit:10;" d="M308.5834 91.4321C308.5834 93.6408 310.3714 95.3937 312.545 95.3937H550.5561C552.7647 95.3937 554.5177 93.6057 554.5177 91.4321V-5.9599C554.5177 -8.1686 552.7297 -9.9215 550.5561 -9.9215H312.545C310.3364 -9.9215 308.5834 -8.1335 308.5834 -5.9599V91.4321H308.5834Z"></path>
        <path style="fill:none;stroke:#000000;stroke-width:0.5;stroke-miterlimit:10;" d="M554.5177 36.2854C554.5177 37.3722 553.6412 38.2837 552.5193 38.2837H552.5193H549.5394C547.0853 38.2837 545.0519 40.282 545.0519 42.7712H545.0519H545.0519C545.0519 45.2252 547.0502 47.2586 549.5394 47.2586H549.5394H552.5193C553.6061 47.2586 554.5177 48.1351 554.5177 49.257C554.5177 49.257 554.5177 49.257 554.5177 49.257"></path>
        <path style="fill:none;stroke:#000000;stroke-width:0.5;stroke-miterlimit:10;" d="M308.5834 49.1868C308.5834 48.1 309.4599 47.1885 310.5818 47.1885H313.5617C316.0158 47.1885 318.0492 45.1902 318.0492 42.701H318.0492H318.0492C318.0492 40.247 316.0509 38.2136 313.5617 38.2136H313.5617H310.5818C309.495 38.2136 308.5834 37.3371 308.5834 36.2153"></path>
        <path style="fill:#FFFFFF;stroke:#000000;stroke-width:0.5;stroke-miterlimit:10;" d="M144.1949 104.2985C144.1949 102.0899 142.4069 100.3369 140.2333 100.3369H-97.8127C-100.0214 100.3369 -101.7743 102.1249 -101.7743 104.2985V201.6906C-101.7743 203.8993 -99.9864 205.6522 -97.8127 205.6522H140.1983C142.4069 205.6522 144.1599 203.8642 144.1599 201.6906L144.1949 104.2985Z"></path>
        <path style="fill:none;stroke:#000000;stroke-width:0.5;stroke-miterlimit:10;" d="M144.1949 104.2985C144.1949 102.0899 142.4069 100.3369 140.2333 100.3369H-97.8127C-100.0214 100.3369 -101.7743 102.1249 -101.7743 104.2985V201.6906C-101.7743 203.8993 -99.9864 205.6522 -97.8127 205.6522H140.1983C142.4069 205.6522 144.1599 203.8642 144.1599 201.6906L144.1949 104.2985Z"></path>
        <path style="fill:none;stroke:#000000;stroke-width:0.5;stroke-miterlimit:10;" d="M144.5806 142.6173C144.5806 143.7041 143.7041 144.6156 142.5822 144.6156H142.5822H139.6023C137.1482 144.6156 135.1148 146.6139 135.1148 149.1031C135.1148 149.1031 135.1148 149.1031 135.1148 149.1031H135.1148C135.1148 151.5572 137.1131 153.5906 139.5672 153.5906C139.5672 153.5906 139.5672 153.5906 139.5672 153.5906H142.5472C143.634 153.5906 144.5455 154.467 144.5455 155.5889H144.5455"></path>
        
        <!-- <path style="fill:#FFFFFF;stroke:#000000;stroke-width:0.5;stroke-miterlimit:10;" d="M307.5668 100.372C307.5668 98.1984 305.7788 96.4104 303.6052 96.4104H149.5588C147.3502 96.4104 145.5973 98.1984 145.5973 100.372V197.7641C145.5973 199.9727 147.3852 201.7256 149.5588 201.7256H303.6052C305.8138 201.7256 307.5668 199.9377 307.5668 197.7641V100.372Z"></path> -->
        
        <path style="fill:none;stroke:#000000;stroke-width:0.5;stroke-miterlimit:10;" d="M307.5668 100.372C307.5668 98.1984 305.7788 96.4104 303.6052 96.4104H149.5588C147.3502 96.4104 145.5973 98.1984 145.5973 100.372V197.7641C145.5973 199.9727 147.3852 201.7256 149.5588 201.7256H303.6052C305.8138 201.7256 307.5668 199.9377 307.5668 197.7641V100.372Z"></path>
        
        <path style="fill:none;stroke:#000000;stroke-width:0.5;stroke-miterlimit:10;" d="M145.5973 155.5188C145.5973 154.432 146.5088 153.5555 147.5956 153.5555C147.5956 153.5555 147.5956 153.5555 147.5956 153.5555H150.5755C153.0296 153.5555 155.063 151.5572 155.063 149.068C155.063 149.068 155.063 149.068 155.063 149.068H155.063C155.063 146.6139 153.0647 144.5806 150.5755 144.5806C150.5755 144.5806 150.5755 144.5806 150.5755 144.5806H147.5956C146.5088 144.5806 145.5973 143.7041 145.5973 142.5822H145.5973"></path>
        <path style="fill:none;stroke:#000000;stroke-width:0.5;stroke-miterlimit:10;" d="M307.5668 142.6173C307.5668 143.7041 306.6903 144.6156 305.5684 144.6156H302.5885C300.1344 144.6156 298.101 146.6139 298.101 149.1031C298.101 149.1031 298.101 149.1031 298.101 149.1031H298.101C298.101 151.5572 300.0993 153.5906 302.5534 153.5906C302.5534 153.5906 302.5534 153.5906 302.5534 153.5906H305.5334C306.6202 153.5906 307.5317 154.467 307.5317 155.5889"></path>
        <path style="fill:#FFFFFF;stroke:#000000;stroke-width:0.5;stroke-miterlimit:10;" d="M308.5834 197.7641C308.5834 199.9727 310.3714 201.7256 312.545 201.7256H550.5561C552.7647 201.7256 554.5177 199.9377 554.5177 197.7641V100.372C554.5177 98.1984 552.7297 96.4104 550.5561 96.4104H312.545C310.3364 96.4104 308.5834 98.1984 308.5834 100.372V197.7641H308.5834Z"></path>
        <path style="fill:none;stroke:#000000;stroke-width:0.5;stroke-miterlimit:10;" d="M308.5834 197.7641C308.5834 199.9727 310.3714 201.7256 312.545 201.7256H550.5561C552.7647 201.7256 554.5177 199.9377 554.5177 197.7641V100.372C554.5177 98.1984 552.7297 96.4104 550.5561 96.4104H312.545C310.3364 96.4104 308.5834 98.1984 308.5834 100.372V197.7641H308.5834Z"></path>
        <path style="fill:none;stroke:#000000;stroke-width:0.5;stroke-miterlimit:10;" d="M554.5177 142.6173C554.5177 143.7041 553.6412 144.6156 552.5193 144.6156H552.5193H549.5394C547.0853 144.6156 545.0519 146.6139 545.0519 149.1031C545.0519 149.1031 545.0519 149.1031 545.0519 149.1031H545.0519C545.0519 151.5572 547.0502 153.5906 549.5043 153.5906C549.5043 153.5906 549.5043 153.5906 549.5043 153.5906H552.4843C553.5711 153.5906 554.4826 154.467 554.4826 155.5889C554.4826 155.5889 554.4826 155.5889 554.4826 155.5889"></path>
        <path style="fill:none;stroke:#000000;stroke-width:0.5;stroke-miterlimit:10;" d="M308.5834 155.5188C308.5834 154.432 309.4599 153.5204 310.5818 153.5204H313.5617C316.0158 153.5204 318.0492 151.5221 318.0492 149.033C318.0492 149.033 318.0492 149.033 318.0492 149.033H318.0492C318.0492 146.5789 316.0509 144.5455 313.5617 144.5455H313.5617H310.5818C309.495 144.5455 308.5834 143.669 308.5834 142.5472"></path>
        <path style="fill:#FFFFFF;stroke:#000000;stroke-width:0.5;stroke-miterlimit:10;" d="M144.5806 206.7039C144.5806 204.4953 142.7926 202.7423 140.619 202.7423H-97.392C-99.6007 202.7423 -101.3536 204.5303 -101.3536 206.7039V304.096C-101.3536 306.3047 -99.5657 308.0576 -97.392 308.0576H140.619C142.8276 308.0576 144.5806 306.2696 144.5806 304.096V206.7039Z"></path>
        <path style="fill:none;stroke:#000000;stroke-width:0.5;stroke-miterlimit:10;" d="M144.5806 206.7039C144.5806 204.4953 142.7926 202.7423 140.619 202.7423H-97.392C-99.6007 202.7423 -101.3536 204.5303 -101.3536 206.7039V304.096C-101.3536 306.3047 -99.5657 308.0576 -97.392 308.0576H140.619C142.8276 308.0576 144.5806 306.2696 144.5806 304.096V206.7039Z"></path>
        <path style="fill:none;stroke:#000000;stroke-width:0.5;stroke-miterlimit:10;" d="M144.5806 248.9492C144.5806 250.036 143.7041 250.9475 142.5822 250.9475H139.6023C137.1482 250.9475 135.1148 252.9459 135.1148 255.435H135.1148H135.1148C135.1148 257.8891 137.1131 259.9225 139.6023 259.9225C139.6023 259.9225 139.6023 259.9225 139.6023 259.9225H142.5822C143.669 259.9225 144.5806 260.7989 144.5806 261.9208"></path>
        <path style="fill:#FFFFFF;stroke:#000000;stroke-width:0.5;stroke-miterlimit:10;" d="M307.5668 206.7039C307.5668 204.5303 305.7788 202.7423 303.6052 202.7423H149.5588C147.3502 202.7423 145.5973 204.5303 145.5973 206.7039V304.096C145.5973 306.3047 147.3852 308.0576 149.5588 308.0576H303.6052C305.8138 308.0576 307.5668 306.2696 307.5668 304.096V206.7039Z"></path>
        <path style="fill:none;stroke:#000000;stroke-width:0.5;stroke-miterlimit:10;" d="M307.5668 206.7039C307.5668 204.5303 305.7788 202.7423 303.6052 202.7423H149.5588C147.3502 202.7423 145.5973 204.5303 145.5973 206.7039V304.096C145.5973 306.3047 147.3852 308.0576 149.5588 308.0576H303.6052C305.8138 308.0576 307.5668 306.2696 307.5668 304.096V206.7039Z"></path>
        <path style="fill:none;stroke:#000000;stroke-width:0.5;stroke-miterlimit:10;" d="M145.5973 261.8507C145.5973 260.7639 146.4737 259.8524 147.5956 259.8524H150.5755C153.0296 259.8524 155.063 257.854 155.063 255.3649H155.063H155.063C155.063 252.9108 153.0647 250.8774 150.5755 250.8774C150.5755 250.8774 150.5755 250.8774 150.5755 250.8774H147.5956C146.5088 250.8774 145.5973 250.001 145.5973 248.8791"></path>
        <path style="fill:#FFFFFF;" d="M308.5834 410.4279C308.5834 412.6366 310.3714 414.3895 312.545 414.3895H550.5561C552.7647 414.3895 554.5177 412.6015 554.5177 410.4279V313.0359C554.5177 310.8272 552.7297 309.0743 550.5561 309.0743H312.545C310.3364 309.0743 308.5834 310.8622 308.5834 313.0359V410.4279Z"></path>
        <path style="fill:none;stroke:#000000;stroke-width:0.5;stroke-miterlimit:10;" d="M308.5834 410.4279C308.5834 412.6366 310.3714 414.3895 312.545 414.3895H550.5561C552.7647 414.3895 554.5177 412.6015 554.5177 410.4279V313.0359C554.5177 310.8272 552.7297 309.0743 550.5561 309.0743H312.545C310.3364 309.0743 308.5834 310.8622 308.5834 313.0359V410.4279Z"></path>

        <path style="fill:#FFFFFF;" d="M308.5834 304.096C308.5834 306.3047 310.3714 308.0576 312.545 308.0576H550.5561C552.7647 308.0576 554.5177 306.2696 554.5177 304.096V206.7039C554.5177 204.4953 552.7297 202.7423 550.5561 202.7423H312.545C310.3364 202.7423 308.5834 204.5303 308.5834 206.7039V304.096Z"></path>
        <path style="fill:none;stroke:#000000;stroke-width:0.5;stroke-miterlimit:10;" d="M308.5834 304.096C308.5834 306.3047 310.3714 308.0576 312.545 308.0576H550.5561C552.7647 308.0576 554.5177 306.2696 554.5177 304.096V206.7039C554.5177 204.4953 552.7297 202.7423 550.5561 202.7423H312.545C310.3364 202.7423 308.5834 204.5303 308.5834 206.7039V304.096Z"></path>

        <path style="fill:#FFFFFF;" d="M307.5668 313.0359C307.5668 310.8622 305.7788 309.0743 303.6052 309.0743H149.5588C147.3502 309.0743 145.5973 310.8622 145.5973 313.0359V410.4279C145.5973 412.6366 147.3852 414.3895 149.5588 414.3895H303.6052C305.8138 414.3895 307.5668 412.6015 307.5668 410.4279V313.0359Z"></path>
        <path style="fill:none;stroke:#000000;stroke-width:0.5;stroke-miterlimit:10;" d="M307.5668 313.0359C307.5668 310.8622 305.7788 309.0743 303.6052 309.0743H149.5588C147.3502 309.0743 145.5973 310.8622 145.5973 313.0359V410.4279C145.5973 412.6366 147.3852 414.3895 149.5588 414.3895H303.6052C305.8138 414.3895 307.5668 412.6015 307.5668 410.4279V313.0359Z"></path>

        <path style="fill:#FFFFFF;" d="M144.5806 313.0359C144.5806 310.8272 142.7926 309.0743 140.619 309.0743H-97.392C-99.6007 309.0743 -101.3536 310.8622 -101.3536 313.0359V410.4279C-101.3536 412.6366 -99.5657 414.3895 -97.392 414.3895H140.619C142.8276 414.3895 144.5806 412.6015 144.5806 410.4279V313.0359Z"></path>
        <path style="fill:none;stroke:#000000;stroke-width:0.5;stroke-miterlimit:10;" d="M144.5806 313.0359C144.5806 310.8272 142.7926 309.0743 140.619 309.0743H-97.392C-99.6007 309.0743 -101.3536 310.8622 -101.3536 313.0359V410.4279C-101.3536 412.6366 -99.5657 414.3895 -97.392 414.3895H140.619C142.8276 414.3895 144.5806 412.6015 144.5806 410.4279V313.0359Z"></path>
    </g>
</svg>