<svg version="1.1" id="SIMPLIFIED" xmlns="http://www.w3.org/2000/svg" xmlns:xlink="http://www.w3.org/1999/xlink" x="0px" y="0px" viewBox="-200 -200 2821.4 2821.5" style="enable-background:new 0 0 2821.4 2821.5;" xml:space="preserve">
    <g id="DECK_BASE">
        <path style="fill:#FFFFFF;stroke:#000000;stroke-width:0.5;stroke-miterlimit:10;" d="M647.1418 502.0003H-202.0412C-202.6021 502.0003 -203.0228 501.5445 -203.0228 501.0186V-2.5593C-203.0228 -3.1202 -202.567 -3.5409 -202.0412 -3.5409H-202.0412H-194.5737C-194.0479 -3.5409 -193.5921 -3.9966 -193.5921 -4.5225V-21.4557C-193.5921 -22.0867 -193.3818 -22.7178 -192.9961 -23.2437L-164.669 -61.0366C-164.1081 -61.7728 -163.2316 -62.2285 -162.285 -62.2285H-145.9829C-145.422 -62.2285 -145.0013 -62.6843 -145.0013 -63.2102V-73.0966C-145.0013 -74.7444 -143.669 -76.0766 -142.0213 -76.0766H587.1219C588.7696 -76.0766 590.1019 -74.7444 590.1019 -73.0966V-63.2102C590.1019 -62.6492 590.5576 -62.2285 591.0835 -62.2285H607.631C608.4023 -62.2285 609.1736 -61.913 609.7345 -61.3521L637.8163 -33.2353C638.3772 -32.6744 638.6927 -31.9381 638.6927 -31.1318V-4.5576C638.6927 -3.9966 639.1485 -3.5759 639.6743 -3.5759H647.1067C647.6676 -3.5759 648.0883 -3.1202 648.0883 -2.5943V500.9836C648.1234 501.5445 647.7027 502.0003 647.1418 502.0003C647.1418 502.0003 647.1418 502.0003 647.1418 502.0003Z"></path>
        <path style="fill:none;stroke:#000000;stroke-width:0.5;stroke-miterlimit:10;" d="M145.5973 420.3845V489.4494C145.5973 492.1839 143.3886 494.4277 140.619 494.4277C140.619 494.4277 140.619 494.4277 140.619 494.4277H-97.392C-100.1266 494.4277 -102.3703 492.219 -102.3703 489.4844C-102.3703 489.4844 -102.3703 489.4844 -102.3703 489.4844V-5.9599C-102.3703 -8.6945 -100.1617 -10.9382 -97.392 -10.9382H-97.392H550.5561C553.2906 -10.9382 555.5343 -8.7295 555.5343 -5.9599V410.4279C555.5343 413.1625 553.3257 415.4062 550.5561 415.4062C550.5561 415.4062 550.5561 415.4062 550.5561 415.4062H150.5755C147.8059 415.4062 145.5973 417.6149 145.5973 420.3845C145.5973 420.3845 145.5973 420.3845 145.5973 420.3845Z"></path>
        <path d="M137.9896 42.7361C137.9896 44.0045 139.3627 44.7973 140.4612 44.1631C140.971 43.8688 141.2851 43.3248 141.2851 42.7361C141.2851 41.4677 139.912 40.6749 138.8135 41.3091C138.3037 41.6035 137.9896 42.1474 137.9896 42.7361"></path>
        <path style="fill:none;stroke:#000000;stroke-width:0.5;stroke-linecap:round;stroke-linejoin:round;" d="M303.1143 19.3873H302.1327C301.3264 19.3873 300.6603 20.0534 300.6603 20.8597H300.6603C300.6603 21.666 301.3264 22.3322 302.1327 22.3322H303.1143C303.9207 22.3322 304.5868 21.666 304.5868 20.8597H304.5868C304.5868 20.0534 303.9207 19.3873 303.1143 19.3873Z"></path>
        <path style="fill:none;stroke:#000000;stroke-width:0.5;stroke-linecap:round;stroke-linejoin:round;" d="M303.1143 51.1852H302.1327C301.3264 51.1852 300.6603 51.8513 300.6603 52.6576H300.6603H300.6603C300.6603 53.464 301.3264 54.1301 302.1327 54.1301H303.1143C303.9207 54.1301 304.5868 53.464 304.5868 52.6576H304.5868C304.5868 51.8513 303.9207 51.1852 303.1143 51.1852H303.1143Z"></path>
        <path style="fill:none;stroke:#000000;stroke-width:0.5;stroke-linecap:round;stroke-linejoin:round;" d="M303.1143 63.105H302.1327C301.3264 63.105 300.6603 63.7711 300.6603 64.5774H300.6603H300.6603C300.6603 65.3838 301.3264 66.0499 302.1327 66.0499H302.1327H303.1143C303.9207 66.0499 304.5868 65.3838 304.5868 64.5774H304.5868H304.5868C304.5868 63.7711 303.9207 63.105 303.1143 63.105H303.1143Z"></path>
        <path d="M300.9758 42.7361C300.9758 44.0045 302.3489 44.7973 303.4474 44.1631C303.9572 43.8688 304.2713 43.3248 304.2713 42.7361C304.2713 41.4677 302.8982 40.6749 301.7997 41.3091C301.2898 41.6035 300.9758 42.1474 300.9758 42.7361"></path>
        <path d="M148.9278 42.7361C148.9278 44.0045 150.3009 44.7973 151.3994 44.1631C151.9092 43.8688 152.2233 43.3248 152.2233 42.7361C152.2233 41.4677 150.8502 40.6749 149.7517 41.3091C149.2419 41.6035 148.9278 42.1474 148.9278 42.7361"></path>
        <path d="M137.9896 149.068C137.9896 150.3365 139.3627 151.1292 140.4612 150.495C140.971 150.2007 141.2851 149.6567 141.2851 149.068C141.2851 147.7996 139.912 147.0068 138.8135 147.641C138.3037 147.9354 137.9896 148.4794 137.9896 149.068"></path>
        <path style="fill:none;stroke:#000000;stroke-width:0.5;stroke-linecap:round;stroke-linejoin:round;" d="M303.1143 125.7192H302.1327C301.3264 125.7192 300.6603 126.3853 300.6603 127.1916H300.6603C300.6603 127.998 301.3264 128.6641 302.1327 128.6641H303.1143C303.9207 128.6641 304.5868 127.998 304.5868 127.1916H304.5868C304.5868 126.3853 303.9207 125.7192 303.1143 125.7192Z"></path>
        <path style="fill:none;stroke:#000000;stroke-width:0.5;stroke-linecap:round;stroke-linejoin:round;" d="M303.1143 157.5171H302.1327C301.3264 157.5171 300.6603 158.1832 300.6603 158.9895H300.6603H300.6603C300.6603 159.7959 301.3264 160.462 302.1327 160.462H302.1327H303.1143C303.9207 160.462 304.5868 159.7959 304.5868 158.9895H304.5868H304.5868C304.5868 158.1832 303.9207 157.5171 303.1143 157.5171H303.1143Z"></path>
        <path style="fill:none;stroke:#000000;stroke-width:0.5;stroke-linecap:round;stroke-linejoin:round;" d="M303.1143 169.4369H302.1327C301.3264 169.4369 300.6603 170.103 300.6603 170.9094H300.6603C300.6603 171.7157 301.3264 172.3818 302.1327 172.3818H303.1143C303.9207 172.3818 304.5868 171.7157 304.5868 170.9094H304.5868C304.5868 170.103 303.9207 169.4369 303.1143 169.4369Z"></path>
        <path d="M300.9758 149.068C300.9758 150.3365 302.3489 151.1292 303.4474 150.495C303.9572 150.2007 304.2713 149.6567 304.2713 149.068C304.2713 147.7996 302.8982 147.0068 301.7997 147.641C301.2898 147.9354 300.9758 148.4794 300.9758 149.068"></path>
        <path d="M148.9278 149.068C148.9278 150.3365 150.3009 151.1292 151.3994 150.495C151.9092 150.2007 152.2233 149.6567 152.2233 149.068C152.2233 147.7996 150.8502 147.0068 149.7517 147.641C149.2419 147.9354 148.9278 148.4794 148.9278 149.068"></path>
        <path d="M137.9896 255.4C137.9896 256.6684 139.3627 257.4612 140.4612 256.8269C140.971 256.5326 141.2851 255.9886 141.2851 255.4C141.2851 254.1315 139.912 253.3388 138.8135 253.973C138.3037 254.2673 137.9896 254.8113 137.9896 255.4"></path>
        <path style="fill:none;stroke:#000000;stroke-width:0.5;stroke-linecap:round;stroke-linejoin:round;" d="M303.1143 232.0511H302.1327C301.3264 232.0511 300.6603 232.7172 300.6603 233.5236H300.6603H300.6603C300.6603 234.3299 301.3264 234.996 302.1327 234.996H302.1327H303.1143C303.9207 234.996 304.5868 234.3299 304.5868 233.5236H304.5868H304.5868C304.5868 232.7172 303.9207 232.0511 303.1143 232.0511H303.1143Z"></path>
        <path style="fill:none;stroke:#000000;stroke-width:0.5;stroke-linecap:round;stroke-linejoin:round;" d="M303.1143 263.849H302.1327C301.3264 263.849 300.6603 264.5151 300.6603 265.3215H300.6603C300.6603 266.1278 301.3264 266.7939 302.1327 266.7939H303.1143C303.9207 266.7939 304.5868 266.1278 304.5868 265.3215H304.5868C304.5868 264.5151 303.9207 263.849 303.1143 263.849Z"></path>
        <path style="fill:none;stroke:#000000;stroke-width:0.5;stroke-linecap:round;stroke-linejoin:round;" d="M303.1143 275.7688H302.1327C301.3264 275.7688 300.6603 276.435 300.6603 277.2413H300.6603H300.6603C300.6603 278.0476 301.3264 278.7137 302.1327 278.7137H303.1143C303.9207 278.7137 304.5868 278.0476 304.5868 277.2413H304.5868C304.5868 276.435 303.9207 275.7688 303.1143 275.7688H303.1143Z"></path>
        <path d="M300.9758 255.4C300.9758 256.6684 302.3489 257.4612 303.4474 256.8269C303.9572 256.5326 304.2713 255.9886 304.2713 255.4C304.2713 254.1315 302.8982 253.3388 301.7997 253.973C301.2898 254.2673 300.9758 254.8113 300.9758 255.4"></path>
        <path d="M148.9278 255.4C148.9278 256.6684 150.3009 257.4612 151.3994 256.8269C151.9092 256.5326 152.2233 255.9886 152.2233 255.4C152.2233 254.1315 150.8502 253.3388 149.7517 253.973C149.2419 254.2673 148.9278 254.8113 148.9278 255.4"></path>
        <path d="M137.9896 361.7319C137.9896 363.0003 139.3627 363.7931 140.4612 363.1589C140.971 362.8645 141.2851 362.3206 141.2851 361.7319C141.2851 360.4635 139.912 359.6707 138.8135 360.3049C138.3037 360.5992 137.9896 361.1432 137.9896 361.7319"></path>
        <path style="fill:none;stroke:#000000;stroke-width:0.5;stroke-linecap:round;stroke-linejoin:round;" d="M303.1143 338.383H302.1327C301.3264 338.383 300.6603 339.0491 300.6603 339.8555H300.6603H300.6603C300.6603 340.6618 301.3264 341.3279 302.1327 341.3279H302.1327H303.1143C303.9207 341.3279 304.5868 340.6618 304.5868 339.8555H304.5868H304.5868C304.5868 339.0491 303.9207 338.383 303.1143 338.383H303.1143Z"></path>
        <path style="fill:none;stroke:#000000;stroke-width:0.5;stroke-linecap:round;stroke-linejoin:round;" d="M303.1143 370.1809H302.1327C301.3264 370.1809 300.6603 370.847 300.6603 371.6534H300.6603C300.6603 372.4597 301.3264 373.1258 302.1327 373.1258H302.1327H303.1143C303.9207 373.1258 304.5868 372.4597 304.5868 371.6534H304.5868H304.5868C304.5868 370.847 303.9207 370.1809 303.1143 370.1809Z"></path>
        <path style="fill:none;stroke:#000000;stroke-width:0.5;stroke-linecap:round;stroke-linejoin:round;" d="M303.1143 382.1008H302.1327C301.3264 382.1008 300.6603 382.7669 300.6603 383.5732H300.6603C300.6603 384.3796 301.3264 385.0457 302.1327 385.0457H302.1327H303.1143C303.9207 385.0457 304.5868 384.3796 304.5868 383.5732H304.5868H304.5868C304.5868 382.7669 303.9207 382.1008 303.1143 382.1008Z"></path>
        <path d="M300.9758 361.7319C300.9758 363.0003 302.3489 363.7931 303.4474 363.1589C303.9572 362.8645 304.2713 362.3206 304.2713 361.7319C304.2713 360.4635 302.8982 359.6707 301.7997 360.3049C301.2898 360.5992 300.9758 361.1432 300.9758 361.7319"></path>
        <path d="M311.8789 42.7361C311.8789 44.0045 313.2521 44.7973 314.3505 44.1631C314.8604 43.8688 315.1744 43.3248 315.1744 42.7361C315.1744 41.4677 313.8013 40.6749 312.7028 41.3091C312.193 41.6035 311.8789 42.1474 311.8789 42.7361"></path>
        <path d="M311.8789 149.068C311.8789 150.3365 313.2521 151.1292 314.3505 150.495C314.8604 150.2007 315.1744 149.6567 315.1744 149.068C315.1744 147.7996 313.8013 147.0068 312.7028 147.641C312.193 147.9354 311.8789 148.4794 311.8789 149.068"></path>
        <path style="fill:none;stroke:#000000;stroke-width:0.5;stroke-linecap:round;stroke-linejoin:round;" d="M550.0652 19.3873H549.0836C548.2773 19.3873 547.6112 20.0534 547.6112 20.8597H547.6112C547.6112 21.666 548.2773 22.3322 549.0836 22.3322H550.0652C550.8716 22.3322 551.5377 21.666 551.5377 20.8597H551.5377C551.5377 20.0534 550.8716 19.3873 550.0652 19.3873Z"></path>
        <path style="fill:none;stroke:#000000;stroke-width:0.5;stroke-linecap:round;stroke-linejoin:round;" d="M550.0652 51.1852H549.0836C548.2773 51.1852 547.6112 51.8513 547.6112 52.6576H547.6112H547.6112C547.6112 53.464 548.2773 54.1301 549.0836 54.1301H550.0652C550.8716 54.1301 551.5377 53.464 551.5377 52.6576H551.5377C551.5377 51.8513 550.8716 51.1852 550.0652 51.1852H550.0652Z"></path>
        <path style="fill:none;stroke:#000000;stroke-width:0.5;stroke-linecap:round;stroke-linejoin:round;" d="M550.0652 63.105H549.0836C548.2773 63.105 547.6112 63.7711 547.6112 64.5774H547.6112H547.6112C547.6112 65.3838 548.2773 66.0499 549.0836 66.0499H549.0836H550.0652C550.8716 66.0499 551.5377 65.3838 551.5377 64.5774H551.5377H551.5377C551.5377 63.7711 550.8716 63.105 550.0652 63.105H550.0652Z"></path>
        <path d="M547.9267 42.7361C547.9267 44.0045 549.2998 44.7973 550.3983 44.1631C550.9081 43.8688 551.2222 43.3248 551.2222 42.7361C551.2222 41.4677 549.8491 40.6749 548.7506 41.3091C548.2407 41.6035 547.9267 42.1474 547.9267 42.7361"></path>
        <path style="fill:none;stroke:#000000;stroke-width:0.5;stroke-linecap:round;stroke-linejoin:round;" d="M550.0652 125.7192H549.0836C548.2773 125.7192 547.6112 126.3853 547.6112 127.1916H547.6112C547.6112 127.998 548.2773 128.6641 549.0836 128.6641H550.0652C550.8716 128.6641 551.5377 127.998 551.5377 127.1916H551.5377C551.5377 126.3853 550.8716 125.7192 550.0652 125.7192Z"></path>
        <path style="fill:none;stroke:#000000;stroke-width:0.5;stroke-linecap:round;stroke-linejoin:round;" d="M550.0652 157.5171H549.0836C548.2773 157.5171 547.6112 158.1832 547.6112 158.9895H547.6112H547.6112C547.6112 159.7959 548.2773 160.462 549.0836 160.462H549.0836H550.0652C550.8716 160.462 551.5377 159.7959 551.5377 158.9895H551.5377H551.5377C551.5377 158.1832 550.8716 157.5171 550.0652 157.5171H550.0652Z"></path>
        <path style="fill:none;stroke:#000000;stroke-width:0.5;stroke-linecap:round;stroke-linejoin:round;" d="M550.0652 169.4369H549.0836C548.2773 169.4369 547.6112 170.103 547.6112 170.9094H547.6112C547.6112 171.7157 548.2773 172.3818 549.0836 172.3818H550.0652C550.8716 172.3818 551.5377 171.7157 551.5377 170.9094H551.5377C551.5377 170.103 550.8716 169.4369 550.0652 169.4369Z"></path>
        <path style="fill:none;stroke:#000000;stroke-width:0.5;stroke-miterlimit:10;" d="M551.1871 149.068C551.1871 149.9795 550.4509 150.7158 549.5394 150.7158C548.6279 150.7158 547.8916 149.9795 547.8916 149.068C547.8916 148.1565 548.6279 147.4203 549.5394 147.4203S551.1871 148.1565 551.1871 149.068C551.1871 149.068 551.1871 149.068 551.1871 149.068Z"></path>
        <path d="M137.9896 454.3911C137.9896 455.6595 139.3627 456.4523 140.4612 455.818C140.971 455.5237 141.2851 454.9797 141.2851 454.3911C141.2851 453.1226 139.912 452.3299 138.8135 452.9641C138.3037 453.2584 137.9896 453.8024 137.9896 454.3911"></path>
        <path d="M148.9278 361.7319C148.9278 363.0003 150.3009 363.7931 151.3994 363.1589C151.9092 362.8645 152.2233 362.3206 152.2233 361.7319C152.2233 360.4635 150.8502 359.6707 149.7517 360.3049C149.2419 360.5992 148.9278 361.1432 148.9278 361.7319"></path>
        <path style="fill:none;stroke:#000000;stroke-width:0.75;stroke-linecap:round;stroke-linejoin:round;" d="M135.1499 90.9413H-94.9029C-97.6375 90.9413 -99.8812 88.7326 -99.8812 85.963H-99.8812V77.5841C-99.8812 76.2519 -99.3553 75.0248 -98.4438 74.0783L-93.3954 69.0299C-92.4488 68.0833 -91.958 66.8562 -91.958 65.524V19.9482C-91.958 18.616 -92.4839 17.3889 -93.3954 16.4424L-98.4438 11.394C-99.3904 10.4474 -99.8812 9.2203 -99.8812 7.8881V-0.4908C-99.8812 -3.2254 -97.6725 -5.4691 -94.9029 -5.4691H-94.9029H135.1499C137.8844 -5.4691 140.1282 -3.2604 140.1282 -0.4908V10.8681C140.1282 12.2003 139.6023 13.4273 138.6908 14.3739L136.6223 16.4424C135.6757 17.3889 135.1849 18.616 135.1849 19.9482V65.524C135.1849 66.8562 135.7108 68.0833 136.6223 69.0299L138.6908 71.0983C139.6373 72.0449 140.1282 73.2719 140.1282 74.6041V85.963C140.1282 88.6976 137.9195 90.9063 135.1499 90.9413C135.1849 90.9413 135.1499 90.9413 135.1499 90.9413Z"></path>
        <path style="fill:none;stroke:#000000;stroke-width:0.75;stroke-linecap:round;stroke-linejoin:round;" d="M298.1361 90.9413H155.0279C152.2934 90.9413 150.0497 88.7326 150.0497 85.9981C150.0497 85.9981 150.0497 85.9981 150.0497 85.9981V74.6392C150.0497 73.307 150.5755 72.0799 151.4871 71.1334L153.5555 69.0649C154.5021 68.1183 154.9929 66.8913 154.9929 65.5591V19.9832C154.9929 18.651 154.467 17.424 153.5555 16.4774L151.5221 14.409C150.5755 13.4975 150.0497 12.2354 150.0497 10.9031V-0.4908C150.0497 -3.2254 152.2583 -5.4691 155.0279 -5.4691H155.0279H298.1361C300.8706 -5.4691 303.1143 -3.2604 303.1143 -0.4908V10.8681C303.1143 12.2003 302.5885 13.4273 301.6419 14.3739L299.5735 16.4424C298.6269 17.3889 298.1361 18.616 298.101 19.9482V65.524C298.101 66.8562 298.6269 68.0833 299.5735 69.0299L301.6419 71.0983C302.5885 72.0449 303.0793 73.2719 303.1143 74.6041V85.963C303.1143 88.6976 300.9057 90.9063 298.1361 90.9413C298.1361 90.9413 298.1361 90.9413 298.1361 90.9413Z"></path>
        <path style="fill:none;stroke:#000000;stroke-width:0.75;stroke-linecap:round;stroke-linejoin:round;" d="M135.1499 197.2732H-94.9029C-97.6375 197.2732 -99.8812 195.0646 -99.8812 192.295V183.916C-99.8812 182.5838 -99.3553 181.3568 -98.4438 180.4102L-93.3954 175.3618C-92.4488 174.4152 -91.958 173.1882 -91.958 171.8559V126.2801C-91.958 124.9479 -92.4839 123.7209 -93.3954 122.7743L-98.4438 117.7259C-99.3904 116.7793 -99.8812 115.5523 -99.8812 114.22V105.806C-99.8812 103.0715 -97.6725 100.8278 -94.9029 100.8278H-94.9029H135.1499C137.8844 100.8278 140.1282 103.0364 140.1282 105.806H140.1282V117.1649C140.1282 118.4972 139.6023 119.7242 138.6908 120.6708L136.6223 122.7392C135.6757 123.6858 135.1849 124.9128 135.1849 126.2451V171.8209C135.1849 173.1531 135.7108 174.3801 136.6223 175.3267L138.6908 177.3952C139.6373 178.3417 140.1282 179.5688 140.1282 180.901V192.2599C140.1282 195.0295 137.9195 197.2382 135.1499 197.2732C135.1849 197.2732 135.1499 197.2732 135.1499 197.2732Z"></path>
        <path style="fill:none;stroke:#000000;stroke-width:0.75;stroke-linecap:round;stroke-linejoin:round;" d="M318.0141 90.9413H548.0669C550.8015 90.9413 553.0452 88.7326 553.0452 85.963C553.0452 85.963 553.0452 85.963 553.0452 85.963V77.5841C553.0452 76.2519 552.5193 75.0248 551.5728 74.0783L546.5594 69.0299C545.6128 68.0833 545.122 66.8562 545.087 65.524V19.9482C545.087 18.616 545.6128 17.3889 546.5594 16.4424L551.6078 11.394C552.5544 10.4474 553.0452 9.2203 553.0803 7.8881V-0.5259C553.0803 -3.2604 550.8716 -5.5042 548.102 -5.5042H548.102H318.0141C315.2796 -5.5042 313.0359 -3.2955 313.0359 -0.5259C313.0359 -0.5259 313.0359 -0.5259 313.0359 -0.5259V10.8681C313.0359 12.2003 313.5617 13.4273 314.5083 14.3739L316.5767 16.4424C317.5233 17.3889 318.0141 18.616 318.0492 19.9482V65.524C318.0492 66.8562 317.5233 68.0833 316.5767 69.0299L314.5083 71.0983C313.5617 72.0449 313.0709 73.2719 313.0359 74.6041V85.963C313.0359 88.6976 315.2445 90.9063 318.0141 90.9413C317.9791 90.9413 318.0141 90.9413 318.0141 90.9413Z"></path>
        <path style="fill:none;stroke:#000000;stroke-width:0.75;stroke-linecap:round;stroke-linejoin:round;" d="M318.0141 197.2732H548.0669C550.8015 197.2732 553.0452 195.0646 553.0452 192.295H553.0452V183.916C553.0452 182.5838 552.5193 181.3568 551.5728 180.4102L546.5594 175.3618C545.6128 174.4152 545.122 173.1882 545.087 171.8559V126.2801C545.087 124.9479 545.6128 123.7209 546.5594 122.7743L551.6078 117.7259C552.5544 116.7793 553.0452 115.5523 553.0803 114.22V105.806C553.0803 103.0715 550.8716 100.8278 548.102 100.8278H548.102H318.0141C315.2796 100.8278 313.0359 103.0364 313.0359 105.806V117.1649C313.0359 118.4972 313.5617 119.7242 314.5083 120.6708L316.5767 122.7392C317.5233 123.6858 318.0141 124.9128 318.0492 126.2451V171.8209C318.0492 173.1531 317.5233 174.3801 316.5767 175.3267L314.5083 177.3952C313.5617 178.3417 313.0709 179.5688 313.0359 180.901V192.2599C313.0359 195.0295 315.2445 197.2382 318.0141 197.2732C317.9791 197.2732 318.0141 197.2732 318.0141 197.2732Z"></path>
        <path style="fill:none;stroke:#000000;stroke-width:0.75;stroke-linecap:round;stroke-linejoin:round;" d="M298.1361 197.2732H155.0279C152.2934 197.2732 150.0497 195.0646 150.0497 192.33C150.0497 192.33 150.0497 192.33 150.0497 192.33V180.9711C150.0497 179.6389 150.5755 178.4119 151.4871 177.4653L153.5555 175.3968C154.5021 174.4503 154.9929 173.2232 154.9929 171.891V126.3152C154.9929 124.983 154.467 123.7559 153.5555 122.8093L151.4871 120.7409C150.5405 119.7943 150.0497 118.5673 150.0497 117.2351V105.8762C150.0497 103.1416 152.2583 100.8979 155.0279 100.8979H155.0279H298.1361C300.8706 100.8979 303.1143 103.1066 303.1143 105.8762V117.2351C303.1143 118.5673 302.5885 119.7943 301.6419 120.7409L299.5735 122.8093C298.6269 123.7559 298.1361 124.983 298.101 126.3152V171.891C298.101 173.2232 298.6269 174.4503 299.5735 175.3968L301.6419 177.4653C302.5885 178.4119 303.0793 179.6389 303.1143 180.9711V192.33C303.1143 195.0295 300.8706 197.2732 298.1361 197.2732Z"></path>
        <path style="fill:none;stroke:#000000;stroke-width:0.75;stroke-linecap:round;stroke-linejoin:round;" d="M298.1361 303.6052H155.0279C152.2934 303.6052 150.0497 301.3965 150.0497 298.6619C150.0497 298.6619 150.0497 298.6619 150.0497 298.6269V287.268C150.0497 285.9358 150.5755 284.7087 151.4871 283.7621L153.5555 281.6937C154.5021 280.7471 154.9929 279.5201 154.9929 278.1879V232.612C154.9929 231.2798 154.467 230.0528 153.5555 229.1062L151.4871 227.0378C150.5405 226.0912 150.0497 224.8641 150.0497 223.5319V212.138C150.0497 209.4034 152.2583 207.1597 154.9929 207.1597C154.9929 207.1597 154.9929 207.1597 155.0279 207.1597H298.1361C300.8706 207.1597 303.1143 209.3684 303.1143 212.138V223.4969C303.1143 224.8291 302.5885 226.0561 301.6419 227.0027L299.5735 229.0711C298.6269 230.0177 298.1361 231.2448 298.101 232.577V278.1528C298.101 279.485 298.6269 280.7121 299.5735 281.6586L301.6419 283.7271C302.5885 284.6737 303.0793 285.9007 303.1143 287.2329V298.5918C303.1494 301.3264 300.9407 303.5701 298.2062 303.6052C298.1711 303.6052 298.1361 303.6052 298.1361 303.6052Z"></path>
        <path style="fill:none;stroke:#000000;stroke-width:0.75;stroke-linecap:round;stroke-linejoin:round;" d="M299.5735 388.0256L301.6419 390.0941C302.5885 391.0406 303.0793 392.2677 303.1143 393.5999V404.9588C303.1143 407.6934 300.9057 409.9371 298.1361 409.9371H298.1361H155.0279C152.2934 409.9371 150.0497 407.7284 150.0497 404.9939C150.0497 404.9939 150.0497 404.9939 150.0497 404.9939V393.635C150.0497 392.3027 150.5755 391.0757 151.4871 390.1291L153.5555 388.0607C154.5021 387.1141 154.9929 385.8871 154.9929 384.5549V338.979C154.9929 337.6468 154.467 336.4198 153.5555 335.4732L151.4871 333.4047C150.5405 332.4582 150.0497 331.2311 150.0497 329.8989V318.54C150.0497 315.8055 152.2583 313.5617 155.0279 313.5617H298.1361C300.8706 313.5617 303.1143 315.7704 303.1143 318.54V329.8989C303.1143 331.2311 302.5885 332.4582 301.6419 333.4047L299.5735 335.4732C298.6269 336.4198 298.1361 337.6468 298.101 338.979V384.5549C298.1361 385.852 298.6619 387.1141 299.5735 388.0256Z"></path>
        <path style="fill:none;stroke:#000000;stroke-width:0.75;stroke-linecap:round;stroke-linejoin:round;" d="M136.6223 425.1173C135.6757 426.0639 135.1849 427.291 135.1849 428.6232V484.436C135.1849 487.1706 132.9763 489.4143 130.2066 489.4143C130.2066 489.4143 130.2066 489.4143 130.2066 489.4143H-86.9447C-89.6792 489.4143 -91.9229 487.2057 -91.9229 484.436H-91.9229V431.6031C-91.9229 430.2709 -92.4488 429.0439 -93.3603 428.0973L-98.4087 423.0489C-99.3553 422.1023 -99.8461 420.8753 -99.8461 419.5431V396.5799C-99.8461 395.2476 -99.3203 394.0206 -98.4087 393.074L-93.3603 388.0256C-92.4138 387.0791 -91.9229 385.852 -91.9229 384.5198V338.944C-91.9229 337.6117 -92.4488 336.3847 -93.3603 335.4381L-98.4087 330.3897C-99.3553 329.4432 -99.8461 328.2161 -99.8461 326.8839V290.2479C-99.8461 288.9157 -99.3203 287.6887 -98.4087 286.7421L-93.3603 281.6937C-92.4138 280.7471 -91.9229 279.5201 -91.9229 278.1879V232.612C-91.9229 231.2798 -92.4488 230.0528 -93.3603 229.1062L-98.4087 224.0578C-99.3553 223.1112 -99.8461 221.8842 -99.8461 220.552V212.138C-99.8461 209.4034 -97.6375 207.1597 -94.9029 207.1597C-94.9029 207.1597 -94.9029 207.1597 -94.9029 207.1597H135.1499C137.8844 207.1597 140.1282 209.3684 140.1282 212.138V223.4969C140.1282 224.8291 139.6023 226.0561 138.6908 227.0027L136.6223 229.0711C135.6757 230.0177 135.1849 231.2448 135.1849 232.577V278.1528C135.1849 279.485 135.7108 280.7121 136.6223 281.6586L138.6908 283.7271C139.6373 284.6737 140.1282 285.9007 140.1282 287.2329V329.8639C140.1282 331.1961 139.6023 332.4231 138.6908 333.3697L136.6223 335.4381C135.6757 336.3847 135.1849 337.6117 135.1849 338.944V384.5198C135.1849 385.852 135.7108 387.0791 136.6223 388.0256L138.6908 390.0941C139.6373 391.0406 140.1282 392.2677 140.1282 393.5999V419.5431C140.1282 420.8753 139.6023 422.1023 138.6908 423.0489L136.6223 425.1173Z"></path>
        <path d="M138.1649 20.8597C138.1649 21.9932 139.3919 22.7016 140.3736 22.1349C140.8291 21.8719 141.1098 21.3858 141.1098 20.8597C141.1098 19.7262 139.8828 19.0178 138.9011 19.5845C138.4455 19.8476 138.1649 20.3337 138.1649 20.8597"></path>
        <path d="M149.1031 20.8597C149.1031 21.9932 150.3301 22.7016 151.3118 22.1349C151.7673 21.8719 152.048 21.3858 152.048 20.8597C152.048 19.7262 150.821 19.0178 149.8393 19.5845C149.3837 19.8476 149.1031 20.3337 149.1031 20.8597"></path>
        <path d="M138.1649 52.6576C138.1649 53.7911 139.3919 54.4995 140.3736 53.9328C140.8291 53.6698 141.1098 53.1837 141.1098 52.6576C141.1098 51.5241 139.8828 50.8157 138.9011 51.3824C138.4455 51.6455 138.1649 52.1316 138.1649 52.6576"></path>
        <path d="M149.1031 52.6576C149.1031 53.7911 150.3301 54.4995 151.3118 53.9328C151.7673 53.6698 152.048 53.1837 152.048 52.6576C152.048 51.5241 150.821 50.8157 149.8393 51.3824C149.3837 51.6455 149.1031 52.1316 149.1031 52.6576"></path>
        <path d="M138.1649 64.5774C138.1649 65.7109 139.3919 66.4194 140.3736 65.8526C140.8291 65.5896 141.1098 65.1035 141.1098 64.5774C141.1098 63.444 139.8828 62.7355 138.9011 63.3023C138.4455 63.5653 138.1649 64.0514 138.1649 64.5774"></path>
        <path d="M149.1031 64.5774C149.1031 65.7109 150.3301 66.4194 151.3118 65.8526C151.7673 65.5896 152.048 65.1035 152.048 64.5774C152.048 63.444 150.821 62.7355 149.8393 63.3023C149.3837 63.5653 149.1031 64.0514 149.1031 64.5774"></path>
        <path d="M138.1649 127.1916C138.1649 128.3251 139.3919 129.0336 140.3736 128.4668C140.8291 128.2038 141.1098 127.7177 141.1098 127.1916C141.1098 126.0581 139.8828 125.3497 138.9011 125.9165C138.4455 126.1795 138.1649 126.6656 138.1649 127.1916"></path>
        <path d="M149.1031 127.1916C149.1031 128.3251 150.3301 129.0336 151.3118 128.4668C151.7673 128.2038 152.048 127.7177 152.048 127.1916C152.048 126.0581 150.821 125.3497 149.8393 125.9165C149.3837 126.1795 149.1031 126.6656 149.1031 127.1916"></path>
        <path d="M138.1649 158.9895C138.1649 160.123 139.3919 160.8315 140.3736 160.2647C140.8291 160.0017 141.1098 159.5156 141.1098 158.9895C141.1098 157.856 139.8828 157.1476 138.9011 157.7144C138.4455 157.9774 138.1649 158.4635 138.1649 158.9895"></path>
        <path d="M149.1031 158.9895C149.1031 160.123 150.3301 160.8315 151.3118 160.2647C151.7673 160.0017 152.048 159.5156 152.048 158.9895C152.048 157.856 150.821 157.1476 149.8393 157.7144C149.3837 157.9774 149.1031 158.4635 149.1031 158.9895"></path>
        <path d="M138.1649 170.9444C138.1649 172.0779 139.3919 172.7864 140.3736 172.2196C140.8291 171.9566 141.1098 171.4705 141.1098 170.9444C141.1098 169.8109 139.8828 169.1025 138.9011 169.6693C138.4455 169.9323 138.1649 170.4184 138.1649 170.9444"></path>
        <path d="M312.0542 20.8597C312.0542 21.9932 313.2813 22.7016 314.2629 22.1349C314.7185 21.8719 314.9991 21.3858 314.9991 20.8597C314.9991 19.7262 313.7721 19.0178 312.7905 19.5845C312.3349 19.8476 312.0542 20.3337 312.0542 20.8597"></path>
        <path d="M312.0542 52.6576C312.0542 53.7911 313.2813 54.4995 314.2629 53.9328C314.7185 53.6698 314.9991 53.1837 314.9991 52.6576C314.9991 51.5241 313.7721 50.8157 312.7905 51.3824C312.3349 51.6455 312.0542 52.1316 312.0542 52.6576"></path>
        <path d="M312.0542 64.5774C312.0542 65.7109 313.2813 66.4194 314.2629 65.8526C314.7185 65.5896 314.9991 65.1035 314.9991 64.5774C314.9991 63.444 313.7721 62.7355 312.7905 63.3023C312.3349 63.5653 312.0542 64.0514 312.0542 64.5774"></path>
        <path d="M312.0542 127.1916C312.0542 128.3251 313.2813 129.0336 314.2629 128.4668C314.7185 128.2038 314.9991 127.7177 314.9991 127.1916C314.9991 126.0581 313.7721 125.3497 312.7905 125.9165C312.3349 126.1795 312.0542 126.6656 312.0542 127.1916"></path>
        <path d="M312.0542 158.9895C312.0542 160.123 313.2813 160.8315 314.2629 160.2647C314.7185 160.0017 314.9991 159.5156 314.9991 158.9895C314.9991 157.856 313.7721 157.1476 312.7905 157.7144C312.3349 157.9774 312.0542 158.4635 312.0542 158.9895"></path>
        <path d="M312.0542 170.9444C312.0542 172.0779 313.2813 172.7864 314.2629 172.2196C314.7185 171.9566 314.9991 171.4705 314.9991 170.9444C314.9991 169.8109 313.7721 169.1025 312.7905 169.6693C312.3349 169.9323 312.0542 170.4184 312.0542 170.9444"></path>
        <path d="M311.8789 255.4C311.8789 256.6684 313.2521 257.4612 314.3505 256.8269C314.8604 256.5326 315.1744 255.9886 315.1744 255.4C315.1744 254.1315 313.8013 253.3388 312.7028 253.973C312.193 254.2673 311.8789 254.8113 311.8789 255.4"></path>
        <path d="M311.8789 361.7319C311.8789 363.0003 313.2521 363.7931 314.3505 363.1589C314.8604 362.8645 315.1744 362.3206 315.1744 361.7319C315.1744 360.4635 313.8013 359.6707 312.7028 360.3049C312.193 360.5992 311.8789 361.1432 311.8789 361.7319"></path>
        <path style="fill:none;stroke:#000000;stroke-width:0.5;stroke-linecap:round;stroke-linejoin:round;" d="M550.0652 232.0511H549.0836C548.2773 232.0511 547.6112 232.7172 547.6112 233.5236H547.6112H547.6112C547.6112 234.3299 548.2773 234.996 549.0836 234.996H549.0836H550.0652C550.8716 234.996 551.5377 234.3299 551.5377 233.5236H551.5377H551.5377C551.5377 232.7172 550.8716 232.0511 550.0652 232.0511H550.0652Z"></path>
        <path style="fill:none;stroke:#000000;stroke-width:0.5;stroke-linecap:round;stroke-linejoin:round;" d="M550.0652 263.849H549.0836C548.2773 263.849 547.6112 264.5151 547.6112 265.3215H547.6112C547.6112 266.1278 548.2773 266.7939 549.0836 266.7939H550.0652C550.8716 266.7939 551.5377 266.1278 551.5377 265.3215H551.5377C551.5377 264.5151 550.8716 263.849 550.0652 263.849Z"></path>
        <path style="fill:none;stroke:#000000;stroke-width:0.5;stroke-linecap:round;stroke-linejoin:round;" d="M550.0652 275.7688H549.0836C548.2773 275.7688 547.6112 276.435 547.6112 277.2413H547.6112H547.6112C547.6112 278.0476 548.2773 278.7137 549.0836 278.7137H550.0652C550.8716 278.7137 551.5377 278.0476 551.5377 277.2413H551.5377C551.5377 276.435 550.8716 275.7688 550.0652 275.7688H550.0652Z"></path>
        <path d="M547.9267 255.4C547.9267 256.6684 549.2998 257.4612 550.3983 256.8269C550.9081 256.5326 551.2222 255.9886 551.2222 255.4C551.2222 254.1315 549.8491 253.3388 548.7506 253.973C548.2407 254.2673 547.9267 254.8113 547.9267 255.4"></path>
        <path style="fill:none;stroke:#000000;stroke-width:0.5;stroke-linecap:round;stroke-linejoin:round;" d="M550.0652 338.383H549.0836C548.2773 338.383 547.6112 339.0491 547.6112 339.8555H547.6112H547.6112C547.6112 340.6618 548.2773 341.3279 549.0836 341.3279H549.0836H550.0652C550.8716 341.3279 551.5377 340.6618 551.5377 339.8555H551.5377H551.5377C551.5377 339.0491 550.8716 338.383 550.0652 338.383H550.0652Z"></path>
        <path style="fill:none;stroke:#000000;stroke-width:0.5;stroke-linecap:round;stroke-linejoin:round;" d="M550.0652 370.1809H549.0836C548.2773 370.1809 547.6112 370.847 547.6112 371.6534H547.6112C547.6112 372.4597 548.2773 373.1258 549.0836 373.1258H549.0836H550.0652C550.8716 373.1258 551.5377 372.4597 551.5377 371.6534H551.5377H551.5377C551.5377 370.847 550.8716 370.1809 550.0652 370.1809Z"></path>
        <path style="fill:none;stroke:#000000;stroke-width:0.5;stroke-linecap:round;stroke-linejoin:round;" d="M550.0652 382.1008H549.0836C548.2773 382.1008 547.6112 382.7669 547.6112 383.5732H547.6112C547.6112 384.3796 548.2773 385.0457 549.0836 385.0457H549.0836H550.0652C550.8716 385.0457 551.5377 384.3796 551.5377 383.5732H551.5377H551.5377C551.5377 382.7669 550.8716 382.1008 550.0652 382.1008Z"></path>
        <path d="M547.9267 361.7319C547.9267 363.0003 549.2998 363.7931 550.3983 363.1589C550.9081 362.8645 551.2222 362.3206 551.2222 361.7319C551.2222 360.4635 549.8491 359.6707 548.7506 360.3049C548.2407 360.5992 547.9267 361.1432 547.9267 361.7319"></path>
        <path style="fill:none;stroke:#000000;stroke-width:0.75;stroke-linecap:round;stroke-linejoin:round;" d="M318.0141 303.6052H548.0669C550.8015 303.6052 553.0452 301.3965 553.0452 298.6269H553.0452V290.2479C553.0452 288.9157 552.5193 287.6887 551.5728 286.7421L546.5594 281.6937C545.6128 280.7471 545.122 279.5201 545.087 278.1879V232.612C545.087 231.2798 545.6128 230.0528 546.5594 229.1062L551.6078 224.0578C552.5544 223.1112 553.0452 221.8842 553.0803 220.552V212.138C553.0803 209.4034 550.8716 207.1597 548.137 207.1597C548.137 207.1597 548.102 207.1597 548.102 207.1597H318.0141C315.2796 207.1597 313.0359 209.3684 313.0359 212.138V223.4969C313.0359 224.8291 313.5617 226.0561 314.5083 227.0027L316.5767 229.0711C317.5233 230.0177 318.0141 231.2448 318.0492 232.577V278.1528C318.0492 279.485 317.5233 280.7121 316.5767 281.6586L314.5083 283.7271C313.5617 284.6737 313.0709 285.9007 313.0359 287.2329V298.5918C313.0008 301.3264 315.2095 303.5701 317.944 303.6052C317.9791 303.6052 317.9791 303.6052 318.0141 303.6052Z"></path>
        <path style="fill:none;stroke:#000000;stroke-width:0.75;stroke-linecap:round;stroke-linejoin:round;" d="M318.0141 409.9371H548.0669C550.8015 409.9371 553.0452 407.7284 553.0452 404.9588C553.0452 404.9588 553.0452 404.9588 553.0452 404.9588V396.5799C553.0452 395.2476 552.5193 394.0206 551.5728 393.074L546.5594 388.0256C545.6128 387.0791 545.122 385.852 545.087 384.5198V338.944C545.087 337.6117 545.6128 336.3847 546.5594 335.4381L551.6078 330.3897C552.5544 329.4432 553.0452 328.2161 553.0803 326.8839V318.505C553.0803 315.7704 550.8716 313.5267 548.102 313.5267H548.102H318.0141C315.2796 313.5267 313.0359 315.7353 313.0359 318.505V329.8639C313.0359 331.1961 313.5617 332.4231 314.5083 333.3697L316.5767 335.4381C317.5233 336.3847 318.0141 337.6117 318.0492 338.944V384.5198C318.0492 385.852 317.5233 387.0791 316.5767 388.0256L314.5083 390.0941C313.5617 391.0406 313.0709 392.2677 313.0359 393.5999V404.9588C313.0359 407.6934 315.2445 409.9371 318.0141 409.9371C317.9791 409.9371 318.0141 409.9371 318.0141 409.9371Z"></path>
        <path d="M312.0542 233.5236C312.0542 234.6571 313.2813 235.3655 314.2629 234.7987C314.7185 234.5357 314.9991 234.0496 314.9991 233.5236C314.9991 232.3901 313.7721 231.6816 312.7905 232.2484C312.3349 232.5114 312.0542 232.9975 312.0542 233.5236"></path>
        <path d="M312.0542 265.3215C312.0542 266.455 313.2813 267.1634 314.2629 266.5966C314.7185 266.3336 314.9991 265.8475 314.9991 265.3215C314.9991 264.188 313.7721 263.4795 312.7905 264.0463C312.3349 264.3093 312.0542 264.7954 312.0542 265.3215"></path>
        <path d="M312.0542 277.2764C312.0542 278.4099 313.2813 279.1183 314.2629 278.5515C314.7185 278.2885 314.9991 277.8024 314.9991 277.2764C314.9991 276.1429 313.7721 275.4344 312.7905 276.0012C312.3349 276.2642 312.0542 276.7503 312.0542 277.2764"></path>
        <path d="M312.0542 339.8905C312.0542 341.024 313.2813 341.7325 314.2629 341.1657C314.7185 340.9027 314.9991 340.4166 314.9991 339.8905C314.9991 338.757 313.7721 338.0486 312.7905 338.6154C312.3349 338.8784 312.0542 339.3645 312.0542 339.8905"></path>
        <path d="M312.0542 371.6884C312.0542 372.8219 313.2813 373.5304 314.2629 372.9636C314.7185 372.7006 314.9991 372.2145 314.9991 371.6884C314.9991 370.555 313.7721 369.8465 312.7905 370.4133C312.3349 370.6763 312.0542 371.1624 312.0542 371.6884"></path>
        <path d="M312.0542 383.6083C312.0542 384.7418 313.2813 385.4502 314.2629 384.8835C314.7185 384.6204 314.9991 384.1343 314.9991 383.6083C314.9991 382.4748 313.7721 381.7664 312.7905 382.3331C312.3349 382.5961 312.0542 383.0822 312.0542 383.6083"></path>
        <path d="M149.1031 170.9444C149.1031 172.0779 150.3301 172.7864 151.3118 172.2196C151.7673 171.9566 152.048 171.4705 152.048 170.9444C152.048 169.8109 150.821 169.1025 149.8393 169.6693C149.3837 169.9323 149.1031 170.4184 149.1031 170.9444"></path>
        <path d="M138.1649 233.5236C138.1649 234.6571 139.3919 235.3655 140.3736 234.7987C140.8291 234.5357 141.1098 234.0496 141.1098 233.5236C141.1098 232.3901 139.8828 231.6816 138.9011 232.2484C138.4455 232.5114 138.1649 232.9975 138.1649 233.5236"></path>
        <path d="M149.1031 233.5236C149.1031 234.6571 150.3301 235.3655 151.3118 234.7987C151.7673 234.5357 152.048 234.0496 152.048 233.5236C152.048 232.3901 150.821 231.6816 149.8393 232.2484C149.3837 232.5114 149.1031 232.9975 149.1031 233.5236"></path>
        <path d="M138.1649 265.3215C138.1649 266.455 139.3919 267.1634 140.3736 266.5966C140.8291 266.3336 141.1098 265.8475 141.1098 265.3215C141.1098 264.188 139.8828 263.4795 138.9011 264.0463C138.4455 264.3093 138.1649 264.7954 138.1649 265.3215"></path>
        <path d="M149.1031 265.3215C149.1031 266.455 150.3301 267.1634 151.3118 266.5966C151.7673 266.3336 152.048 265.8475 152.048 265.3215C152.048 264.188 150.821 263.4795 149.8393 264.0463C149.3837 264.3093 149.1031 264.7954 149.1031 265.3215"></path>
        <path d="M138.1649 277.2764C138.1649 278.4099 139.3919 279.1183 140.3736 278.5515C140.8291 278.2885 141.1098 277.8024 141.1098 277.2764C141.1098 276.1429 139.8828 275.4344 138.9011 276.0012C138.4455 276.2642 138.1649 276.7503 138.1649 277.2764"></path>
        <path d="M149.1031 277.2764C149.1031 278.4099 150.3301 279.1183 151.3118 278.5515C151.7673 278.2885 152.048 277.8024 152.048 277.2764C152.048 276.1429 150.821 275.4344 149.8393 276.0012C149.3837 276.2642 149.1031 276.7503 149.1031 277.2764"></path>
        <path d="M138.1649 339.8905C138.1649 341.024 139.3919 341.7325 140.3736 341.1657C140.8291 340.9027 141.1098 340.4166 141.1098 339.8905C141.1098 338.757 139.8828 338.0486 138.9011 338.6154C138.4455 338.8784 138.1649 339.3645 138.1649 339.8905"></path>
        <path d="M149.1031 339.8905C149.1031 341.024 150.3301 341.7325 151.3118 341.1657C151.7673 340.9027 152.048 340.4166 152.048 339.8905C152.048 338.757 150.821 338.0486 149.8393 338.6154C149.3837 338.8784 149.1031 339.3645 149.1031 339.8905"></path>
        <path d="M138.1649 371.6884C138.1649 372.8219 139.3919 373.5304 140.3736 372.9636C140.8291 372.7006 141.1098 372.2145 141.1098 371.6884C141.1098 370.555 139.8828 369.8465 138.9011 370.4133C138.4455 370.6763 138.1649 371.1624 138.1649 371.6884"></path>
        <path d="M149.1031 371.6884C149.1031 372.8219 150.3301 373.5304 151.3118 372.9636C151.7673 372.7006 152.048 372.2145 152.048 371.6884C152.048 370.555 150.821 369.8465 149.8393 370.4133C149.3837 370.6763 149.1031 371.1624 149.1031 371.6884"></path>
        <path d="M138.1649 383.6083C138.1649 384.7418 139.3919 385.4502 140.3736 384.8835C140.8291 384.6204 141.1098 384.1343 141.1098 383.6083C141.1098 382.4748 139.8828 381.7664 138.9011 382.3331C138.4455 382.5961 138.1649 383.0822 138.1649 383.6083"></path>
        <path d="M149.1031 383.6083C149.1031 384.7418 150.3301 385.4502 151.3118 384.8835C151.7673 384.6204 152.048 384.1343 152.048 383.6083C152.048 382.4748 150.821 381.7664 149.8393 382.3331C149.3837 382.5961 149.1031 383.0822 149.1031 383.6083"></path>
        <path style="fill:none;stroke:#000000;stroke-width:0.75;stroke-linecap:round;stroke-linejoin:round;" d="M401.488 459.6147H377.6484C376.0006 459.6147 374.6684 458.2825 374.6684 456.6348H374.6684V442.7166C374.6684 441.0689 376.0006 439.7367 377.6484 439.7367H377.6484H401.488C403.1358 439.7367 404.468 441.0689 404.468 442.7166H404.468V456.6348C404.468 458.2825 403.1358 459.6147 401.488 459.6147H401.488Z"></path>
        <path d="M406.256 449.6932C406.256 453.6605 410.5506 456.14 413.9863 454.1564C415.5809 453.2358 416.5631 451.5344 416.5631 449.6932C416.5631 445.726 412.2685 443.2465 408.8328 445.2301C407.2382 446.1507 406.256 447.852 406.256 449.6932"></path>
        <path d="M409.7618 449.6932C409.7618 450.9617 411.1349 451.7544 412.2334 451.1202C412.7432 450.8259 413.0573 450.2819 413.0573 449.6932C413.0573 448.4248 411.6842 447.632 410.5857 448.2663C410.0759 448.5606 409.7618 449.1046 409.7618 449.6932"></path>
        <path d="M417.72 449.6932C417.72 450.9617 419.0932 451.7544 420.1917 451.1202C420.7015 450.8259 421.0155 450.2819 421.0155 449.6932C421.0155 448.4248 419.6424 447.632 418.5439 448.2663C418.0341 448.5606 417.72 449.1046 417.72 449.6932"></path>
        <path d="M362.5382 449.6932C362.5382 453.6605 366.8329 456.14 370.2686 454.1564C371.8631 453.2358 372.8454 451.5344 372.8454 449.6932C372.8454 445.726 368.5507 443.2465 365.115 445.2301C363.5205 446.1507 362.5382 447.852 362.5382 449.6932"></path>
        <path d="M366.0441 449.6932C366.0441 450.9617 367.4172 451.7544 368.5157 451.1202C369.0255 450.8259 369.3395 450.2819 369.3395 449.6932C369.3395 448.4248 367.9664 447.632 366.8679 448.2663C366.3581 448.5606 366.0441 449.1046 366.0441 449.6932"></path>
        <path style="fill:none;stroke:#000000;stroke-width:0.75;stroke-linecap:round;stroke-linejoin:round;" d="M609.1736 30.8163V54.6559C609.1736 56.3037 607.8414 57.6359 606.1936 57.6359H592.2755C590.6277 57.6359 589.2955 56.3037 589.2955 54.6559V30.8163C589.2955 29.1685 590.6277 27.8363 592.2755 27.8363H606.1936C607.8414 27.8363 609.1736 29.1685 609.1736 30.8163Z"></path>
        <path d="M594.0985 20.8597C594.0985 24.8269 598.3932 27.3064 601.8289 25.3228C603.4234 24.4022 604.4057 22.7009 604.4057 20.8597C604.4057 16.8925 600.111 14.413 596.6753 16.3966C595.0808 17.3172 594.0985 19.0185 594.0985 20.8597"></path>
        <path d="M597.6043 20.8597C597.6043 22.1281 598.9775 22.9209 600.076 22.2867C600.5858 21.9924 600.8998 21.4484 600.8998 20.8597C600.8998 19.5913 599.5267 18.7985 598.4282 19.4327C597.9184 19.7271 597.6043 20.271 597.6043 20.8597"></path>
        <path d="M597.6043 12.9015C597.6043 14.1699 598.9775 14.9627 600.076 14.3285C600.5858 14.0341 600.8998 13.4901 600.8998 12.9015C600.8998 11.633 599.5267 10.8403 598.4282 11.4745C597.9184 11.7688 597.6043 12.3128 597.6043 12.9015"></path>
        <path d="M594.0985 64.5774C594.0985 68.5447 598.3932 71.0242 601.8289 69.0406C603.4234 68.12 604.4057 66.4186 604.4057 64.5774C604.4057 60.6102 600.111 58.1307 596.6753 60.1143C595.0808 61.0349 594.0985 62.7363 594.0985 64.5774"></path>
        <path d="M597.6043 64.5774C597.6043 65.8459 598.9775 66.6387 600.076 66.0044C600.5858 65.7101 600.8998 65.1661 600.8998 64.5774C600.8998 63.309 599.5267 62.5162 598.4282 63.1505C597.9184 63.4448 597.6043 63.9888 597.6043 64.5774"></path>
        <path style="fill:none;stroke:#000000;stroke-width:0.75;stroke-linecap:round;stroke-linejoin:round;" d="M599.2521 74.1834C598.3406 74.1834 597.6043 73.4472 597.6043 72.5357S598.3406 70.8879 599.2521 70.8879S600.8998 71.6242 600.8998 72.5357C600.8998 73.4472 600.1636 74.1834 599.2521 74.1834H599.2521Z"></path>
        <path style="fill:none;stroke:#000000;stroke-width:0.75;stroke-linecap:round;stroke-linejoin:round;" d="M609.1736 349.812V373.6517C609.1736 375.2995 607.8414 376.6317 606.1936 376.6317H606.1936H592.2755C590.6277 376.6317 589.2955 375.2995 589.2955 373.6517H589.2955V349.812C589.2955 348.1643 590.6277 346.8321 592.2755 346.8321H592.2755H606.1936C607.8414 346.8321 609.1736 348.1643 609.1736 349.812C609.1736 349.812 609.1736 349.812 609.1736 349.812Z"></path>
        <path d="M594.0985 339.8905C594.0985 343.8578 598.3932 346.3373 601.8289 344.3537C603.4234 343.4331 604.4057 341.7317 604.4057 339.8905C604.4057 335.9233 600.111 333.4438 596.6753 335.4274C595.0808 336.348 594.0985 338.0493 594.0985 339.8905"></path>
        <path d="M597.6043 339.8905C597.6043 341.159 598.9775 341.9517 600.076 341.3175C600.5858 341.0232 600.8998 340.4792 600.8998 339.8905C600.8998 338.6221 599.5267 337.8293 598.4282 338.4636C597.9184 338.7579 597.6043 339.3019 597.6043 339.8905"></path>
        <path d="M597.6043 331.9323C597.6043 333.2007 598.9775 333.9935 600.076 333.3593C600.5858 333.0649 600.8998 332.521 600.8998 331.9323C600.8998 330.6639 599.5267 329.8711 598.4282 330.5053C597.9184 330.7997 597.6043 331.3436 597.6043 331.9323"></path>
        <path d="M594.0985 383.6083C594.0985 387.5755 598.3932 390.055 601.8289 388.0714C603.4234 387.1508 604.4057 385.4495 604.4057 383.6083C604.4057 379.6411 600.111 377.1615 596.6753 379.1452C595.0808 380.0658 594.0985 381.7671 594.0985 383.6083"></path>
        <path d="M597.6043 383.6083C597.6043 384.8767 598.9775 385.6695 600.076 385.0353C600.5858 384.7409 600.8998 384.197 600.8998 383.6083C600.8998 382.3399 599.5267 381.5471 598.4282 382.1813C597.9184 382.4756 597.6043 383.0196 597.6043 383.6083"></path>
        <path d="M597.6043 391.5315C597.6043 392.7999 598.9775 393.5927 600.076 392.9585C600.5858 392.6641 600.8998 392.1201 600.8998 391.5315C600.8998 390.263 599.5267 389.4703 598.4282 390.1045C597.9184 390.3988 597.6043 390.9428 597.6043 391.5315"></path>
        <path style="fill:#FFFFFF;" d="M308.5834 304.096C308.5834 306.3047 310.3714 308.0576 312.545 308.0576H550.5561C552.7647 308.0576 554.5177 306.2696 554.5177 304.096V206.7039C554.5177 204.4953 552.7297 202.7423 550.5561 202.7423H312.545C310.3364 202.7423 308.5834 204.5303 308.5834 206.7039V304.096Z"></path>
        <path style="fill:none;stroke:#000000;stroke-width:0.5;stroke-miterlimit:10;" d="M308.5834 304.096C308.5834 306.3047 310.3714 308.0576 312.545 308.0576H550.5561C552.7647 308.0576 554.5177 306.2696 554.5177 304.096V206.7039C554.5177 204.4953 552.7297 202.7423 550.5561 202.7423H312.545C310.3364 202.7423 308.5834 204.5303 308.5834 206.7039V304.096Z"></path>
        <path style="fill:none;stroke:#000000;stroke-width:0.5;stroke-miterlimit:10;" d="M554.5177 248.9492C554.5177 250.036 553.6412 250.9475 552.5193 250.9475H552.5193H549.5394C547.0853 250.9475 545.0519 252.9459 545.0519 255.435H545.0519H545.0519C545.0519 257.8891 547.0502 259.9225 549.5394 259.9225H549.5394H552.5193C553.6061 259.9225 554.5177 260.7989 554.5177 261.9208H554.5177"></path>
        <path style="fill:none;stroke:#000000;stroke-width:0.5;stroke-miterlimit:10;" d="M308.5834 261.8507C308.5834 260.7639 309.4599 259.8524 310.5818 259.8524H313.5617C316.0158 259.8524 318.0492 257.854 318.0492 255.3649H318.0492H318.0492C318.0492 252.9108 316.0509 250.8774 313.5617 250.8774H313.5617H310.5818C309.495 250.8774 308.5834 250.001 308.5834 248.8791"></path>
        <path style="fill:#FFFFFF;" d="M144.5806 313.0359C144.5806 310.8272 142.7926 309.0743 140.619 309.0743H-97.392C-99.6007 309.0743 -101.3536 310.8622 -101.3536 313.0359V410.4279C-101.3536 412.6366 -99.5657 414.3895 -97.392 414.3895H140.619C142.8276 414.3895 144.5806 412.6015 144.5806 410.4279V313.0359Z"></path>
        <path style="fill:none;stroke:#000000;stroke-width:0.5;stroke-miterlimit:10;" d="M144.5806 313.0359C144.5806 310.8272 142.7926 309.0743 140.619 309.0743H-97.392C-99.6007 309.0743 -101.3536 310.8622 -101.3536 313.0359V410.4279C-101.3536 412.6366 -99.5657 414.3895 -97.392 414.3895H140.619C142.8276 414.3895 144.5806 412.6015 144.5806 410.4279V313.0359Z"></path>
        <path style="fill:none;stroke:#000000;stroke-width:0.5;stroke-miterlimit:10;" d="M144.5806 355.2811C144.5806 356.368 143.7041 357.2795 142.5822 357.2795H139.6023C137.1482 357.2795 135.1148 359.2778 135.1148 361.7669H135.1148C135.1148 364.221 137.1131 366.2544 139.6023 366.2544C139.6023 366.2544 139.6023 366.2544 139.6023 366.2544H142.5822C143.669 366.2544 144.5806 367.1309 144.5806 368.2527H144.5806"></path>
        <path style="fill:#FFFFFF;" d="M307.5668 313.0359C307.5668 310.8622 305.7788 309.0743 303.6052 309.0743H149.5588C147.3502 309.0743 145.5973 310.8622 145.5973 313.0359V410.4279C145.5973 412.6366 147.3852 414.3895 149.5588 414.3895H303.6052C305.8138 414.3895 307.5668 412.6015 307.5668 410.4279V313.0359Z"></path>
        <path style="fill:none;stroke:#000000;stroke-width:0.5;stroke-miterlimit:10;" d="M307.5668 313.0359C307.5668 310.8622 305.7788 309.0743 303.6052 309.0743H149.5588C147.3502 309.0743 145.5973 310.8622 145.5973 313.0359V410.4279C145.5973 412.6366 147.3852 414.3895 149.5588 414.3895H303.6052C305.8138 414.3895 307.5668 412.6015 307.5668 410.4279V313.0359Z"></path>
        <path style="fill:none;stroke:#000000;stroke-width:0.5;stroke-miterlimit:10;" d="M145.5973 368.1826C145.5973 367.0958 146.4737 366.1843 147.5956 366.1843C147.5956 366.1843 147.5956 366.1843 147.5956 366.1843H150.5755C153.0296 366.1843 155.063 364.186 155.063 361.6968H155.063H155.063C155.063 359.2427 153.0647 357.2094 150.5755 357.2094C150.5755 357.2094 150.5755 357.2094 150.5755 357.2094H147.5956C146.5088 357.2094 145.5973 356.3329 145.5973 355.211"></path>
        <path style="fill:none;stroke:#000000;stroke-width:0.5;stroke-miterlimit:10;" d="M307.5668 355.2811C307.5668 356.368 306.6903 357.2795 305.5684 357.2795H302.5885C300.1344 357.2795 298.101 359.2778 298.101 361.7669H298.101C298.101 364.221 300.0993 366.2544 302.5885 366.2544H302.5885H305.5684C306.6552 366.2544 307.5668 367.1309 307.5668 368.2527H307.5668"></path>
        <path style="fill:#FFFFFF;" d="M308.5834 410.4279C308.5834 412.6366 310.3714 414.3895 312.545 414.3895H550.5561C552.7647 414.3895 554.5177 412.6015 554.5177 410.4279V313.0359C554.5177 310.8272 552.7297 309.0743 550.5561 309.0743H312.545C310.3364 309.0743 308.5834 310.8622 308.5834 313.0359V410.4279Z"></path>
        <path style="fill:none;stroke:#000000;stroke-width:0.5;stroke-miterlimit:10;" d="M308.5834 410.4279C308.5834 412.6366 310.3714 414.3895 312.545 414.3895H550.5561C552.7647 414.3895 554.5177 412.6015 554.5177 410.4279V313.0359C554.5177 310.8272 552.7297 309.0743 550.5561 309.0743H312.545C310.3364 309.0743 308.5834 310.8622 308.5834 313.0359V410.4279Z"></path>
        <path style="fill:none;stroke:#000000;stroke-width:0.5;stroke-miterlimit:10;" d="M554.5177 355.2811C554.5177 356.368 553.6412 357.2795 552.5193 357.2795H552.5193H549.5394C547.0853 357.2795 545.0519 359.2778 545.0519 361.7669H545.0519C545.0519 364.221 547.0502 366.2544 549.5394 366.2544H549.5394H552.5193C553.6061 366.2544 554.5177 367.1309 554.5177 368.2527C554.5177 368.2527 554.5177 368.2527 554.5177 368.2527"></path>
        <path style="fill:none;stroke:#000000;stroke-width:0.5;stroke-miterlimit:10;" d="M308.5834 368.1826C308.5834 367.0958 309.4599 366.1843 310.5818 366.1843H310.5818H313.5617C316.0158 366.1843 318.0492 364.186 318.0492 361.6968H318.0492H318.0492C318.0492 359.2427 316.0509 357.2094 313.5617 357.2094H313.5617H310.5818C309.495 357.2094 308.5834 356.3329 308.5834 355.211"></path>
        <path id="BARCODE_READER_7" style="fill:none;stroke:#000000;stroke-width:0.5;stroke-miterlimit:10;" d="M425.3277 432.7951H353.7736C350.4782 432.7951 347.8137 435.4596 347.8137 438.755H347.8137V460.6314C347.8137 463.9269 350.4782 466.5914 353.7736 466.5914H425.3277C428.6232 466.5914 431.2876 463.9269 431.2876 460.6314V438.7901C431.2876 435.4596 428.6232 432.7951 425.3277 432.7951C425.3277 432.7951 425.3277 432.7951 425.3277 432.7951Z"></path>
        <path id="BARCODE_READER_6" style="fill:none;stroke:#000000;stroke-width:0.5;stroke-miterlimit:10;" d="M610.1903 320.0125H588.3139C585.0184 320.0125 582.354 322.6769 582.354 325.9724V397.5264C582.354 400.8219 585.0184 403.4864 588.3139 403.4864H610.1903C613.4858 403.4864 616.1502 400.8219 616.1502 397.5264V325.9724C616.1502 322.6769 613.4858 320.0125 610.1903 320.0125Z"></path>
        <path id="BARCODE_READER_5" style="fill:none;stroke:#000000;stroke-width:0.5;stroke-miterlimit:10;" d="M610.1903 0.9816H588.3139C585.0184 0.9816 582.354 3.6461 582.354 6.9415H582.354V78.4956C582.354 81.7911 585.0184 84.4555 588.3139 84.4555H588.3139H610.1903C613.4858 84.4555 616.1502 81.7911 616.1502 78.4956H616.1502V6.9415C616.1502 3.6811 613.4858 0.9816 610.1903 0.9816H610.1903Z"></path>
    </g>
</svg>